<svg width="42" height="41" viewBox="0 0 42 41" fill="none" xmlns="http://www.w3.org/2000/svg">
<path d="M21 41C26.4369 41 31.6512 38.8402 35.4957 34.9957C39.3402 31.1512 41.5 25.9369 41.5 20.5C41.5 15.0631 39.3402 9.84881 35.4957 6.00431C31.6512 2.15981 26.4369 -6.58427e-07 21 -8.96083e-07C15.5631 -1.13374e-06 10.3488 2.15981 6.50431 6.00431C2.65981 9.84881 0.499999 15.0631 0.499999 20.5C0.499999 25.9369 2.65981 31.1512 6.50431 34.9957C10.3488 38.8402 15.5631 41 21 41ZM12.0312 21.7812C11.6914 21.7812 11.3655 21.6463 11.1253 21.406C10.885 21.1657 10.75 20.8398 10.75 20.5C10.75 20.1602 10.885 19.8343 11.1253 19.594C11.3655 19.3537 11.6914 19.2187 12.0312 19.2187L26.8758 19.2187L21.3741 13.7196C21.1335 13.479 20.9984 13.1527 20.9984 12.8125C20.9984 12.4723 21.1335 12.146 21.3741 11.9054C21.6147 11.6648 21.941 11.5296 22.2812 11.5296C22.6215 11.5296 22.9478 11.6648 23.1884 11.9054L30.8759 19.5929C30.9952 19.7119 31.0899 19.8533 31.1545 20.0089C31.219 20.1646 31.2523 20.3315 31.2523 20.5C31.2523 20.6685 31.219 20.8354 31.1545 20.9911C31.0899 21.1467 30.9952 21.2881 30.8759 21.4071L23.1884 29.0946C22.9478 29.3352 22.6215 29.4704 22.2812 29.4704C21.941 29.4704 21.6147 29.3352 21.3741 29.0946C21.1335 28.854 20.9984 28.5277 20.9984 28.1875C20.9984 27.8473 21.1335 27.521 21.3741 27.2804L26.8758 21.7812L12.0312 21.7812Z" fill="#52525B"/>
</svg>
