<svg width="41" height="41" viewBox="0 0 41 41" fill="none" xmlns="http://www.w3.org/2000/svg">
<path d="M20.5 41C25.9369 41 31.1512 38.8402 34.9957 34.9957C38.8402 31.1512 41 25.9369 41 20.5C41 15.0631 38.8402 9.84881 34.9957 6.00431C31.1512 2.15982 25.9369 -6.58427e-07 20.5 -8.96083e-07C15.0631 -1.13374e-06 9.84881 2.15981 6.00431 6.00431C2.15981 9.84881 -6.58427e-07 15.0631 -8.96083e-07 20.5C-1.13374e-06 25.9369 2.15981 31.1512 6.00431 34.9957C9.8488 38.8402 15.0631 41 20.5 41ZM11.5312 21.7812C11.1914 21.7812 10.8655 21.6463 10.6253 21.406C10.385 21.1657 10.25 20.8398 10.25 20.5C10.25 20.1602 10.385 19.8343 10.6253 19.594C10.8655 19.3537 11.1914 19.2187 11.5312 19.2187L26.3758 19.2187L20.8741 13.7196C20.6335 13.479 20.4984 13.1527 20.4984 12.8125C20.4984 12.4723 20.6335 12.146 20.8741 11.9054C21.1147 11.6648 21.441 11.5296 21.7812 11.5296C22.1215 11.5296 22.4478 11.6648 22.6884 11.9054L30.3759 19.5929C30.4952 19.7119 30.5899 19.8533 30.6545 20.0089C30.719 20.1646 30.7523 20.3315 30.7523 20.5C30.7523 20.6685 30.719 20.8354 30.6545 20.9911C30.5899 21.1467 30.4952 21.2881 30.3759 21.4071L22.6884 29.0946C22.4478 29.3352 22.1215 29.4704 21.7812 29.4704C21.441 29.4704 21.1147 29.3352 20.8741 29.0946C20.6335 28.854 20.4984 28.5277 20.4984 28.1875C20.4984 27.8473 20.6335 27.521 20.8741 27.2804L26.3758 21.7812L11.5312 21.7812Z" fill="#D97706"/>
</svg>
