<svg width="41" height="41" viewBox="0 0 41 41" fill="none" xmlns="http://www.w3.org/2000/svg">
<path d="M20.5 2.38498e-07C15.1957 1.75244e-07 10.1086 2.15981 6.35786 6.00431C2.60714 9.84881 0.5 15.0631 0.5 20.5C0.5 25.9369 2.60714 31.1512 6.35786 34.9957C10.1086 38.8402 15.1957 41 20.5 41C25.8043 41 30.8914 38.8402 34.6421 34.9957C38.3929 31.1512 40.5 25.9369 40.5 20.5C40.5 15.0631 38.3929 9.84881 34.6421 6.00431C30.8914 2.15981 25.8043 3.01751e-07 20.5 2.38498e-07ZM29.25 19.2188C29.5815 19.2188 29.8995 19.3537 30.1339 19.594C30.3683 19.8343 30.5 20.1602 30.5 20.5C30.5 20.8398 30.3683 21.1657 30.1339 21.406C29.8995 21.6463 29.5815 21.7813 29.25 21.7813L14.7675 21.7813L20.135 27.2804C20.3697 27.521 20.5016 27.8473 20.5016 28.1875C20.5016 28.5277 20.3697 28.854 20.135 29.0946C19.9003 29.3352 19.5819 29.4704 19.25 29.4704C18.9181 29.4704 18.5997 29.3352 18.365 29.0946L10.865 21.4071C10.7486 21.2881 10.6562 21.1467 10.5932 20.9911C10.5302 20.8354 10.4978 20.6685 10.4978 20.5C10.4978 20.3315 10.5302 20.1646 10.5932 20.0089C10.6562 19.8533 10.7486 19.7119 10.865 19.5929L18.365 11.9054C18.5997 11.6648 18.9181 11.5296 19.25 11.5296C19.5819 11.5296 19.9003 11.6648 20.135 11.9054C20.3697 12.146 20.5016 12.4723 20.5016 12.8125C20.5016 13.1527 20.3697 13.479 20.135 13.7196L14.7675 19.2188L29.25 19.2188Z" fill="#52525B"/>
</svg>
