<svg width="19" height="14" viewBox="0 0 19 14" fill="none" xmlns="http://www.w3.org/2000/svg">
<g clip-path="url(#clip0_180122_161390)">
<path d="M11.6983 0.875H15.2983C15.7961 0.875 16.1983 1.26602 16.1983 1.75C16.1983 2.23398 15.7961 2.625 15.2983 2.625H12.1033C11.957 3.33047 11.4592 3.91289 10.7983 4.1918V12.25H15.2983C15.7961 12.25 16.1983 12.641 16.1983 13.125C16.1983 13.609 15.7961 14 15.2983 14H9.89829H4.49829C4.00048 14 3.59829 13.609 3.59829 13.125C3.59829 12.641 4.00048 12.25 4.49829 12.25H8.99829V4.1918C8.33736 3.91016 7.83954 3.32773 7.69329 2.625H4.49829C4.00048 2.625 3.59829 2.23398 3.59829 1.75C3.59829 1.26602 4.00048 0.875 4.49829 0.875H8.09829C8.50892 0.344531 9.16142 0 9.89829 0C10.6352 0 11.2877 0.344531 11.6983 0.875ZM13.262 8.75H17.3345L15.2983 5.35391L13.262 8.75ZM15.2983 11.375C13.5292 11.375 12.0583 10.4453 11.7545 9.21758C11.6814 8.9168 11.7827 8.60781 11.943 8.33984L14.6205 3.87734C14.7611 3.64219 15.0199 3.5 15.2983 3.5C15.5767 3.5 15.8355 3.64492 15.9761 3.87734L18.6536 8.33984C18.8139 8.60781 18.9152 8.9168 18.842 9.21758C18.5383 10.4453 17.0674 11.375 15.2983 11.375ZM4.46454 5.35391L2.42829 8.75H6.5036L4.46454 5.35391ZM0.923605 9.21758C0.85048 8.9168 0.95173 8.60781 1.11204 8.33984L3.78954 3.87734C3.93017 3.64219 4.18892 3.5 4.46736 3.5C4.74579 3.5 5.00454 3.64492 5.14517 3.87734L7.82267 8.33984C7.98298 8.60781 8.08423 8.9168 8.01111 9.21758C7.70454 10.4453 6.23361 11.375 4.46454 11.375C2.69548 11.375 1.22735 10.4453 0.923605 9.21758Z" fill="#D4D4D8"/>
</g>
<defs>
<clipPath id="clip0_180122_161390">
<rect width="18" height="14" fill="white" transform="translate(0.899414)"/>
</clipPath>
</defs>
</svg>
