<svg width="16" height="13" viewBox="0 0 16 13" fill="none" xmlns="http://www.w3.org/2000/svg">
<g clip-path="url(#clip0_179906_138719)">
<path d="M14.5731 3.70376L7.81966 1.29673C7.64274 1.23415 7.45167 1.23485 7.27712 1.29626L0.524141 3.70376C0.20567 3.81626 0 4.10454 0 4.41626C0 4.72798 0.20567 5.03665 0.524141 5.15009L1.13226 5.38892V8.0397L0.387091 11.2928C0.361285 11.4042 0.388197 11.5206 0.459697 11.6099C0.531197 11.6993 0.639962 11.7499 0.755075 11.7499H2.26428C2.3789 11.7499 2.48745 11.6978 2.5589 11.6092C2.63078 11.5206 2.65769 11.4042 2.63262 11.2928L1.8871 7.99048V5.6561L7.27712 7.57774C7.36447 7.60852 7.45587 7.62317 7.54768 7.62317C7.63982 7.62317 7.73195 7.60778 7.82036 7.57702L14.5715 5.16999C14.8916 5.05845 15.0968 4.77017 15.0968 4.41626C15.0968 4.06235 14.8916 3.81626 14.5731 3.70376ZM1.2285 10.9788L1.51369 9.74243L1.79298 10.9788H1.2285ZM7.53187 6.87251L3.05474 5.27642L7.65925 3.85845C7.8583 3.79692 7.97062 3.58774 7.90859 3.38923C7.84704 3.19219 7.63755 3.07915 7.43658 3.14196L1.87294 4.85454L0.754839 4.43735L7.5649 2.0022L14.3419 4.43735L7.53187 6.87251ZM11.3768 7.2522C11.1701 7.27929 11.0244 7.46754 11.0518 7.67337L11.3198 9.70376C11.347 9.91252 11.2099 10.1177 10.9706 10.2274C9.93486 10.7034 8.76368 10.9708 7.59273 10.9994H7.513C6.3331 10.9708 5.16192 10.7034 4.12567 10.2274C3.88648 10.1175 3.74943 9.91235 3.77655 9.70446L4.04546 7.67407C4.07273 7.46824 3.92714 7.28009 3.72041 7.2529C3.51 7.22407 3.32365 7.37173 3.2977 7.57563L3.02973 9.60743C2.95859 10.1472 3.26489 10.6586 3.81005 10.9089C4.93948 11.4264 6.21327 11.7194 7.50357 11.7499H7.60125C8.88353 11.7184 10.1583 11.4276 11.2858 10.9089C11.8309 10.6584 12.1371 10.1472 12.0661 9.60673L11.7982 7.57563C11.7731 7.37173 11.5844 7.22407 11.3768 7.2522Z" fill="#6D28D9"/>
</g>
<defs>
<clipPath id="clip0_179906_138719">
<rect width="15.0968" height="12" fill="white" transform="translate(0 0.5)"/>
</clipPath>
</defs>
</svg>
