<svg width="15" height="14" viewBox="0 0 15 14" fill="none" xmlns="http://www.w3.org/2000/svg">
<g clip-path="url(#clip0_180122_161404)">
<path d="M8.16602 5.00452L11.8574 1.31312H10.5996C10.2359 1.31312 9.94336 1.02054 9.94336 0.656867C9.94336 0.293195 10.2359 0.00061654 10.5996 0.00061654H13.4434C13.807 0.00061654 14.0996 0.293195 14.0996 0.656867V3.50062C14.0996 3.86429 13.807 4.15687 13.4434 4.15687C13.0797 4.15687 12.7871 3.86429 12.7871 3.50062V2.24007L9.0957 5.93421C8.83867 6.19124 8.42305 6.19124 8.16875 5.93421C7.91445 5.67718 7.91172 5.26155 8.16875 5.00726L8.16602 5.00452ZM3.3125 0.0388978C3.84297 -0.106024 4.39805 0.164679 4.60859 0.673273L5.70234 3.29827C5.88828 3.74398 5.75977 4.26077 5.38516 4.56429L4.03711 5.66898C4.94766 7.59398 6.50625 9.15257 8.43125 10.0631L9.5332 8.71507C9.83945 8.34046 10.3535 8.21194 10.7992 8.39788L13.4242 9.49163C13.9328 9.70218 14.2035 10.2573 14.0586 10.7877L13.4023 13.194C13.2738 13.6698 12.8418 14.0006 12.3496 14.0006C5.58477 14.0006 0.0996094 8.51546 0.0996094 1.75062C0.0996094 1.25843 0.430469 0.826398 0.90625 0.695148L3.3125 0.0388978Z" fill="#D4D4D8"/>
</g>
<defs>
<clipPath id="clip0_180122_161404">
<rect width="14" height="14" fill="white" transform="translate(0.0996094)"/>
</clipPath>
</defs>
</svg>
