<svg width="11" height="15" viewBox="0 0 11 15" fill="none" xmlns="http://www.w3.org/2000/svg">
<g clip-path="url(#clip0_179906_138727)">
<path d="M7.16833 5.83571C7.16833 6.98523 6.22485 7.9163 5.06 7.9163C3.89515 7.9163 2.95167 6.98523 2.95167 5.83571C2.95167 4.68618 3.89515 3.75511 5.06 3.75511C6.22485 3.75511 7.16833 4.68618 7.16833 5.83571ZM5.06 7.08406C5.75839 7.08406 6.325 6.5249 6.325 5.83571C6.325 5.14651 5.75839 4.58735 5.06 4.58735C4.36161 4.58735 3.795 5.14651 3.795 5.83571C3.795 6.5249 4.36161 7.08406 5.06 7.08406ZM10.12 5.83571C10.12 8.10875 7.03656 12.1555 5.68459 13.8252C5.36044 14.2231 4.75956 14.2231 4.43541 13.8252C3.05972 12.1555 0 8.10875 0 5.83571C0 3.07788 2.2654 0.842285 5.06 0.842285C7.85354 0.842285 10.12 3.07788 10.12 5.83571ZM5.06 1.67452C2.73029 1.67452 0.843333 3.53665 0.843333 5.83571C0.843333 6.24142 0.986436 6.79798 1.27976 7.48457C1.56728 8.15817 1.97129 8.88897 2.42827 9.61978C3.3259 11.058 4.3906 12.4338 5.06 13.2634C5.7294 12.4338 6.7941 11.058 7.69278 9.61978C8.14871 8.88897 8.55193 8.15817 8.83919 7.48457C9.13435 6.79798 9.27667 6.24142 9.27667 5.83571C9.27667 3.53665 7.38971 1.67452 5.06 1.67452Z" fill="#6D28D9"/>
</g>
<defs>
<clipPath id="clip0_179906_138727">
<rect width="10.12" height="13.3158" fill="white" transform="translate(0 0.842285)"/>
</clipPath>
</defs>
</svg>
