<svg width="403" height="60" viewBox="0 0 403 60" fill="none" xmlns="http://www.w3.org/2000/svg">
<g clip-path="url(#clip0_180122_145927)">
<path d="M162.905 0.499948H14.1031C13.5607 0.499948 13.0248 0.499948 12.4839 0.502898C12.031 0.505848 11.5818 0.514417 11.1246 0.52163C10.1314 0.533285 9.14051 0.62042 8.16057 0.782277C7.182 0.947658 6.23409 1.25945 5.3489 1.7071C4.46479 2.15854 3.65695 2.74514 2.95469 3.44563C2.24874 4.14414 1.66028 4.95152 1.21193 5.83673C0.76235 6.72018 0.450606 7.66688 0.287471 8.64413C0.122785 9.62015 0.0341658 10.6074 0.022409 11.5971C0.00868256 12.0493 0.007233 12.5031 0 12.9553V47.0489C0.007233 47.5069 0.00868256 47.9506 0.022409 48.4087C0.0341694 49.3983 0.122788 50.3855 0.287471 51.3615C0.450156 52.3393 0.761917 53.2865 1.21193 54.1703C1.66008 55.0527 2.24862 55.8568 2.95469 56.5514C3.65428 57.255 4.46265 57.842 5.3489 58.29C6.23409 58.7389 7.18189 59.0525 8.16057 59.2204C9.14067 59.381 10.1315 59.4682 11.1246 59.4812C11.5818 59.4912 12.031 59.497 12.4839 59.497C13.0248 59.5 13.5608 59.4999 14.1031 59.4999H162.905C163.436 59.4999 163.977 59.5 164.508 59.497C164.959 59.497 165.421 59.4912 165.872 59.4812C166.863 59.4689 167.852 59.3817 168.83 59.2204C169.812 59.0513 170.763 58.7378 171.653 58.29C172.538 57.8418 173.346 57.2548 174.045 56.5514C174.749 55.8541 175.339 55.0505 175.792 54.1703C176.239 53.2859 176.548 52.3387 176.708 51.3615C176.873 50.3854 176.965 49.3984 176.983 48.4087C176.988 47.9506 176.988 47.5069 176.988 47.0489C177 46.513 177 45.9801 177 45.4355V14.5657C177 14.0256 177 13.4897 176.988 12.9553C176.988 12.5031 176.988 12.0493 176.983 11.597C176.965 10.6073 176.873 9.62022 176.708 8.64407C176.547 7.66739 176.239 6.72077 175.792 5.83667C174.879 4.06236 173.432 2.61809 171.653 1.70697C170.763 1.26041 169.812 0.948702 168.83 0.782145C167.852 0.619574 166.863 0.532409 165.872 0.521424C165.421 0.514226 164.959 0.505582 164.508 0.502706C163.977 0.499756 163.436 0.499756 162.905 0.499756V0.499948Z" fill="#A6A6A6"/>
<path d="M12.4908 58.2093C12.0401 58.2093 11.6004 58.2035 11.1532 58.1935C10.227 58.1815 9.30287 58.101 8.38851 57.9529C7.53592 57.8065 6.70999 57.5341 5.93796 57.1448C5.17301 56.7586 4.47531 56.2523 3.8716 55.6453C3.25915 55.0454 2.74925 54.3496 2.36212 53.5854C1.97072 52.8164 1.69985 51.992 1.55895 51.1411C1.40678 50.2267 1.32445 49.3022 1.31267 48.3755C1.30329 48.0644 1.29102 47.0286 1.29102 47.0286V12.9553C1.29102 12.9553 1.30409 11.9355 1.31274 11.6359C1.32402 10.7106 1.40587 9.78747 1.55759 8.87455C1.69875 8.0213 1.96983 7.19456 2.36144 6.42296C2.74715 5.65937 3.25421 4.96305 3.86298 4.36098C4.47105 3.75319 5.17098 3.24429 5.93723 2.85284C6.70749 2.46474 7.53186 2.19428 8.38273 2.05053C9.30009 1.90091 10.2274 1.82002 11.1569 1.80854L12.4915 1.79053H164.501L165.851 1.80926C166.772 1.82017 167.691 1.90034 168.6 2.04908C169.46 2.19464 170.293 2.46699 171.072 2.85716C172.607 3.64606 173.856 4.89417 174.644 6.42656C175.029 7.19283 175.296 8.01282 175.435 8.85871C175.589 9.77911 175.675 10.7095 175.692 11.6423C175.697 12.0601 175.697 12.5088 175.697 12.9553C175.708 13.5084 175.708 14.0349 175.708 14.5657V45.4355C175.708 45.9713 175.708 46.4942 175.697 47.0214C175.697 47.5011 175.697 47.9405 175.691 48.3927C175.674 49.3089 175.589 50.2227 175.438 51.1266C175.3 51.9837 175.031 52.8145 174.639 53.5899C174.25 54.3457 173.743 55.0355 173.137 55.6338C172.533 56.2441 171.834 56.7534 171.067 57.142C170.29 57.5343 169.459 57.8077 168.6 57.9529C167.686 58.1018 166.762 58.1823 165.835 58.1935C165.402 58.2035 164.948 58.2093 164.508 58.2093L162.905 58.2122L12.4908 58.2093Z" fill="black" fill-opacity="0.87"/>
<path d="M36.6363 30.4434C36.6522 29.2123 36.9802 28.0052 37.5896 26.9344C38.1991 25.8636 39.0702 24.964 40.122 24.3191C39.4538 23.3675 38.5723 22.5844 37.5476 22.0319C36.5228 21.4795 35.3829 21.1729 34.2185 21.1366C31.7347 20.8766 29.3267 22.6187 28.061 22.6187C26.7708 22.6187 24.822 21.1624 22.7235 21.2054C21.3662 21.2492 20.0433 21.6428 18.8838 22.3479C17.7244 23.053 16.7678 24.0457 16.1075 25.229C13.2468 30.168 15.3806 37.4265 18.1209 41.4188C19.4919 43.3736 21.0942 45.5573 23.1908 45.4799C25.2425 45.395 26.0087 44.1753 28.4852 44.1753C30.9388 44.1753 31.6577 45.4799 33.7968 45.4306C35.9984 45.395 37.3854 43.4671 38.7083 41.4937C39.6934 40.1007 40.4514 38.5612 40.9543 36.9322C39.6753 36.3928 38.5838 35.4898 37.8159 34.3359C37.0481 33.182 36.6378 31.8283 36.6363 30.4434Z" fill="white"/>
<path d="M32.5961 18.511C33.7964 17.074 34.3878 15.227 34.2446 13.3623C32.4107 13.5544 30.7167 14.4284 29.5001 15.8102C28.9053 16.4853 28.4497 17.2706 28.1595 18.1214C27.8692 18.9721 27.7499 19.8715 27.8084 20.7683C28.7257 20.7777 29.6332 20.5794 30.4625 20.1884C31.2918 19.7974 32.0213 19.2239 32.5961 18.511Z" fill="white"/>
<path d="M62.5711 40.5308H55.5697L53.8884 45.4816H50.9229L57.5544 27.165H60.6355L67.2671 45.4816H64.251L62.5711 40.5308ZM56.2948 38.2463H61.8446L59.1087 30.2116H59.0322L56.2948 38.2463Z" fill="white"/>
<path d="M81.5892 38.8051C81.5892 42.955 79.3619 45.6212 76.0006 45.6212C75.1491 45.6657 74.3023 45.4701 73.5571 45.0569C72.8119 44.6437 72.1985 44.0295 71.787 43.2848H71.7234V49.8993H68.9746V32.1273H71.6354V34.3484H71.6859C72.1163 33.6073 72.7401 32.9964 73.4909 32.5806C74.2418 32.1649 75.0916 31.96 75.95 31.9876C79.3488 31.9876 81.5892 34.6668 81.5892 38.8051ZM78.7638 38.8051C78.7638 36.1015 77.3627 34.324 75.2249 34.324C73.1246 34.324 71.7119 36.1389 71.7119 38.8051C71.7119 41.4959 73.1246 43.2978 75.2249 43.2978C77.3627 43.2978 78.7638 41.5333 78.7638 38.8051Z" fill="white"/>
<path d="M96.3285 38.8051C96.3285 42.955 94.1011 45.6212 90.7398 45.6212C89.8884 45.6656 89.0415 45.4701 88.2964 45.0569C87.5512 44.6437 86.9378 44.0295 86.5263 43.2848H86.4627V49.8993H83.7139V32.1273H86.3746V34.3484H86.4251C86.8555 33.6073 87.4793 32.9964 88.2302 32.5806C88.981 32.1649 89.8308 31.96 90.6892 31.9876C94.0881 31.9876 96.3285 34.6668 96.3285 38.8051ZM93.5031 38.8051C93.5031 36.1014 92.102 34.3239 89.9641 34.3239C87.8639 34.3239 86.4512 36.1389 86.4512 38.8051C86.4512 41.4958 87.8639 43.2978 89.9641 43.2978C92.102 43.2978 93.5031 41.5333 93.5031 38.8051H93.5031Z" fill="white"/>
<path d="M106.07 40.3781C106.273 42.1945 108.043 43.3871 110.461 43.3871C112.778 43.3871 114.445 42.1945 114.445 40.5567C114.445 39.135 113.439 38.2837 111.059 37.7003L108.678 37.1285C105.306 36.3161 103.74 34.7431 103.74 32.1907C103.74 29.0303 106.502 26.8596 110.423 26.8596C114.305 26.8596 116.965 29.0303 117.055 32.1907H114.28C114.114 30.3627 112.599 29.2594 110.384 29.2594C108.17 29.2594 106.655 30.3757 106.655 32.0005C106.655 33.2955 107.623 34.0575 109.99 34.6408L112.014 35.1363C115.782 36.025 117.348 37.5346 117.348 40.2138C117.348 43.6406 114.611 45.7868 110.257 45.7868C106.184 45.7868 103.434 43.691 103.256 40.378L106.07 40.3781Z" fill="white"/>
<path d="M123.281 28.967V32.1273H125.828V34.2981H123.281V41.6601C123.281 42.8038 123.791 43.3368 124.911 43.3368C125.213 43.3315 125.515 43.3103 125.815 43.2733V45.4311C125.312 45.5249 124.8 45.5674 124.288 45.5579C121.577 45.5579 120.519 44.5424 120.519 41.9525V34.2981H118.572V32.1273H120.519V28.967H123.281Z" fill="white"/>
<path d="M127.303 38.8052C127.303 34.6034 129.784 31.9631 133.654 31.9631C137.537 31.9631 140.007 34.6034 140.007 38.8052C140.007 43.0184 137.55 45.6472 133.654 45.6472C129.76 45.6472 127.303 43.0184 127.303 38.8052ZM137.206 38.8052C137.206 35.9229 135.881 34.2217 133.654 34.2217C131.427 34.2217 130.104 35.9358 130.104 38.8052C130.104 41.699 131.427 43.3872 133.654 43.3872C135.881 43.3872 137.206 41.699 137.206 38.8052H137.206Z" fill="white"/>
<path d="M142.272 32.1274H144.894V34.4004H144.958C145.135 33.6905 145.552 33.0631 146.139 32.6237C146.725 32.1844 147.446 31.9598 148.179 31.9877C148.496 31.9866 148.812 32.0209 149.121 32.09V34.6539C148.721 34.5321 148.304 34.4761 147.886 34.4883C147.486 34.4721 147.088 34.5423 146.719 34.6941C146.349 34.8458 146.017 35.0755 145.745 35.3674C145.473 35.6593 145.267 36.0065 145.142 36.3851C145.017 36.7637 144.976 37.1647 145.021 37.5607V45.4816H142.272L142.272 32.1274Z" fill="white"/>
<path d="M161.795 41.5593C161.425 43.9835 159.058 45.6472 156.029 45.6472C152.133 45.6472 149.715 43.0444 149.715 38.8686C149.715 34.6798 152.146 31.9631 155.913 31.9631C159.618 31.9631 161.948 34.5012 161.948 38.5502V39.4894H152.49V39.655C152.446 40.1465 152.508 40.6416 152.671 41.1075C152.834 41.5733 153.094 41.9993 153.435 42.357C153.776 42.7148 154.189 42.9962 154.647 43.1825C155.105 43.3688 155.598 43.4557 156.092 43.4376C156.742 43.4983 157.394 43.3483 157.951 43.0098C158.508 42.6714 158.941 42.1627 159.185 41.5593L161.795 41.5593ZM152.503 37.5736H159.198C159.222 37.1317 159.155 36.6895 159 36.2747C158.846 35.8599 158.606 35.4815 158.298 35.1633C157.99 34.845 157.619 34.5938 157.208 34.4253C156.798 34.2568 156.357 34.1748 155.913 34.1843C155.465 34.1816 155.022 34.2674 154.607 34.4366C154.193 34.6059 153.817 34.8552 153.5 35.1704C153.183 35.4855 152.931 35.8601 152.76 36.2726C152.589 36.685 152.502 37.1272 152.503 37.5736V37.5736Z" fill="white"/>
<path d="M55.9506 13.3782C56.5269 13.3369 57.1052 13.4237 57.6438 13.6323C58.1824 13.841 58.6678 14.1662 59.0651 14.5845C59.4624 15.0029 59.7616 15.5039 59.9411 16.0515C60.1207 16.5992 60.1762 17.1797 60.1035 17.7513C60.1035 20.563 58.5796 22.1792 55.9506 22.1792H52.7627V13.3782H55.9506ZM54.1335 20.9346H55.7975C56.2093 20.9591 56.6214 20.8918 57.0038 20.7375C57.3863 20.5832 57.7294 20.3458 58.0082 20.0426C58.287 19.7394 58.4945 19.378 58.6156 18.9847C58.7366 18.5915 58.7683 18.1762 58.7081 17.7692C58.7639 17.3638 58.7291 16.9512 58.6061 16.5608C58.4832 16.1704 58.2752 15.812 57.997 15.5112C57.7188 15.2104 57.3774 14.9747 56.9971 14.8209C56.6169 14.6672 56.2072 14.5992 55.7975 14.6219H54.1335V20.9346Z" fill="white"/>
<path d="M61.6516 18.8553C61.6097 18.4189 61.6598 17.9785 61.7986 17.5624C61.9374 17.1464 62.1619 16.7638 62.4576 16.4394C62.7533 16.1149 63.1138 15.8556 63.5159 15.6782C63.918 15.5008 64.3529 15.4092 64.7926 15.4092C65.2323 15.4092 65.6671 15.5008 66.0692 15.6782C66.4713 15.8556 66.8318 16.1149 67.1276 16.4394C67.4233 16.7638 67.6478 17.1464 67.7866 17.5624C67.9254 17.9785 67.9755 18.4189 67.9336 18.8553C67.9763 19.2923 67.9268 19.7333 67.7883 20.15C67.6499 20.5667 67.4256 20.9499 67.1298 21.2751C66.8339 21.6002 66.4732 21.86 66.0707 22.0378C65.6682 22.2155 65.2328 22.3074 64.7926 22.3074C64.3524 22.3074 63.917 22.2155 63.5145 22.0378C63.112 21.86 62.7512 21.6002 62.4554 21.2751C62.1596 20.9499 61.9353 20.5667 61.7968 20.15C61.6584 19.7333 61.6089 19.2923 61.6516 18.8553ZM66.5816 18.8553C66.5816 17.4156 65.933 16.5737 64.7948 16.5737C63.6522 16.5737 63.0094 17.4156 63.0094 18.8554C63.0094 20.3066 63.6522 21.142 64.7948 21.142C65.933 21.142 66.5816 20.3008 66.5816 18.8553H66.5816Z" fill="white"/>
<path d="M76.2843 22.1792H74.9207L73.5441 17.2875H73.4401L72.0693 22.1792H70.7187L68.8828 15.5374H70.2161L71.4092 20.6055H71.5074L72.8768 15.5374H74.1378L75.5072 20.6055H75.6112L76.7985 15.5374H78.113L76.2843 22.1792Z" fill="white"/>
<path d="M79.6572 15.5373H80.9226V16.5924H81.0208C81.1874 16.2135 81.4685 15.8958 81.8248 15.6837C82.1811 15.4716 82.5948 15.3756 83.0084 15.4091C83.3325 15.3848 83.6579 15.4336 83.9605 15.5517C84.2632 15.6698 84.5352 15.8544 84.7566 16.0916C84.9781 16.3289 85.1431 16.6127 85.2395 16.9222C85.336 17.2317 85.3613 17.5589 85.3138 17.8795V22.1791H83.9993V18.2086C83.9993 17.1413 83.5342 16.6105 82.5621 16.6105C82.342 16.6002 82.1224 16.6376 81.9182 16.7199C81.714 16.8023 81.53 16.9277 81.379 17.0876C81.2279 17.2474 81.1133 17.438 81.043 17.6461C80.9727 17.8543 80.9484 18.0752 80.9717 18.2936V22.1792H79.6572L79.6572 15.5373Z" fill="white"/>
<path d="M87.4082 12.9446H88.7227V22.1792H87.4082V12.9446Z" fill="white"/>
<path d="M90.55 18.8555C90.5081 18.419 90.5582 17.9785 90.6971 17.5625C90.8359 17.1464 91.0604 16.7639 91.3562 16.4394C91.652 16.1149 92.0125 15.8556 92.4146 15.6782C92.8167 15.5008 93.2516 15.4092 93.6914 15.4092C94.1311 15.4092 94.566 15.5008 94.9681 15.6782C95.3702 15.8556 95.7307 16.1149 96.0265 16.4394C96.3223 16.7639 96.5468 17.1464 96.6856 17.5625C96.8244 17.9785 96.8746 18.419 96.8327 18.8555C96.8753 19.2924 96.8258 19.7334 96.6873 20.1501C96.5488 20.5669 96.3245 20.9501 96.0286 21.2752C95.7328 21.6003 95.372 21.8601 94.9695 22.0378C94.567 22.2156 94.1316 22.3075 93.6914 22.3075C93.2511 22.3075 92.8157 22.2156 92.4132 22.0378C92.0107 21.8601 91.6499 21.6003 91.3541 21.2752C91.0582 20.9501 90.8338 20.5669 90.6954 20.1501C90.5569 19.7334 90.5074 19.2924 90.55 18.8555ZM95.48 18.8555C95.48 17.4158 94.8314 16.5738 93.6932 16.5738C92.5506 16.5738 91.9078 17.4158 91.9078 18.8555C91.9078 20.3067 92.5506 21.1422 93.6932 21.1422C94.8314 21.1421 95.48 20.3009 95.48 18.8555H95.48Z" fill="white"/>
<path d="M98.2168 20.3009C98.2168 19.1053 99.1095 18.4161 100.694 18.3181L102.498 18.2144V17.6411C102.498 16.9396 102.033 16.5435 101.135 16.5435C100.401 16.5435 99.8924 16.8122 99.7465 17.2817H98.4739C98.6082 16.1409 99.6844 15.4092 101.195 15.4092C102.865 15.4092 103.807 16.2381 103.807 17.6411V22.1792H102.542V21.2458H102.438C102.226 21.5806 101.93 21.8536 101.579 22.0368C101.227 22.22 100.833 22.3069 100.437 22.2886C100.157 22.3176 99.8747 22.2879 99.6074 22.2013C99.34 22.1147 99.0938 21.9732 98.8846 21.7859C98.6754 21.5987 98.5079 21.3698 98.3929 21.114C98.2779 20.8582 98.2179 20.5812 98.2168 20.3009ZM102.498 19.7333V19.1781L100.872 19.2818C99.9545 19.343 99.5385 19.6541 99.5385 20.2396C99.5385 20.8374 100.058 21.1853 100.774 21.1853C100.983 21.2064 101.195 21.1853 101.396 21.1233C101.597 21.0612 101.784 20.9594 101.945 20.8239C102.105 20.6884 102.237 20.5221 102.333 20.3347C102.428 20.1474 102.484 19.9428 102.498 19.7333Z" fill="white"/>
<path d="M105.534 18.8554C105.534 16.7567 106.616 15.4272 108.299 15.4272C108.715 15.4081 109.128 15.5075 109.49 15.7138C109.852 15.9202 110.147 16.2249 110.341 16.5924H110.44V12.9446H111.754V22.1792H110.495V21.1298H110.391C110.181 21.4949 109.875 21.7958 109.507 22.0001C109.138 22.2043 108.72 22.3041 108.299 22.2886C106.605 22.2887 105.534 20.9592 105.534 18.8554ZM106.892 18.8554C106.892 20.2641 107.558 21.1118 108.672 21.1118C109.78 21.1118 110.464 20.2519 110.464 18.8612C110.464 17.4769 109.772 16.6047 108.672 16.6047C107.565 16.6047 106.892 17.4582 106.892 18.8554H106.892Z" fill="white"/>
<path d="M117.193 18.8553C117.151 18.4189 117.201 17.9785 117.34 17.5624C117.478 17.1464 117.703 16.7638 117.999 16.4394C118.294 16.1149 118.655 15.8556 119.057 15.6782C119.459 15.5008 119.894 15.4092 120.334 15.4092C120.773 15.4092 121.208 15.5008 121.61 15.6782C122.012 15.8556 122.373 16.1149 122.669 16.4394C122.964 16.7638 123.189 17.1464 123.328 17.5624C123.466 17.9785 123.516 18.4189 123.475 18.8553C123.517 19.2923 123.468 19.7333 123.329 20.15C123.191 20.5667 122.967 20.9499 122.671 21.2751C122.375 21.6002 122.014 21.86 121.612 22.0378C121.209 22.2155 120.774 22.3074 120.334 22.3074C119.893 22.3074 119.458 22.2155 119.056 22.0378C118.653 21.86 118.292 21.6002 117.996 21.2751C117.701 20.9499 117.476 20.5667 117.338 20.15C117.199 19.7333 117.15 19.2923 117.193 18.8553ZM122.123 18.8553C122.123 17.4156 121.474 16.5737 120.336 16.5737C119.193 16.5737 118.55 17.4156 118.55 18.8554C118.55 20.3066 119.193 21.142 120.336 21.142C121.474 21.142 122.123 20.3008 122.123 18.8553Z" fill="white"/>
<path d="M125.238 15.5373H126.504V16.5924H126.602C126.769 16.2135 127.05 15.8958 127.406 15.6837C127.762 15.4716 128.176 15.3756 128.589 15.4091C128.914 15.3848 129.239 15.4336 129.542 15.5517C129.844 15.6698 130.116 15.8544 130.338 16.0916C130.559 16.3289 130.724 16.6127 130.821 16.9222C130.917 17.2317 130.942 17.5589 130.895 17.8795V22.1791H129.58V18.2086C129.58 17.1413 129.115 16.6105 128.143 16.6105C127.923 16.6002 127.703 16.6376 127.499 16.7199C127.295 16.8023 127.111 16.9277 126.96 17.0876C126.809 17.2474 126.694 17.438 126.624 17.6461C126.554 17.8543 126.529 18.0752 126.553 18.2936V22.1792H125.238V15.5373Z" fill="white"/>
<path d="M138.322 13.8838V15.5676H139.766V16.6717H138.322V20.087C138.322 20.7827 138.61 21.0874 139.264 21.0874C139.432 21.0868 139.599 21.0767 139.766 21.0571V22.149C139.529 22.1911 139.29 22.2135 139.051 22.2159C137.589 22.2159 137.007 21.7031 137.007 20.4226V16.6717H135.949V15.5676H137.007V13.8838H138.322Z" fill="white"/>
<path d="M141.561 12.9446H142.863V16.6047H142.967C143.142 16.2222 143.431 15.9027 143.794 15.6898C144.158 15.4769 144.578 15.3809 144.998 15.4149C145.321 15.3974 145.643 15.4511 145.942 15.5721C146.241 15.6931 146.51 15.8785 146.729 16.115C146.948 16.3515 147.112 16.6333 147.21 16.9403C147.307 17.2473 147.335 17.5719 147.292 17.891V22.1792H145.976V18.2144C145.976 17.1535 145.481 16.6162 144.552 16.6162C144.326 16.5977 144.099 16.6287 143.886 16.707C143.674 16.7852 143.481 16.9089 143.321 17.0693C143.161 17.2296 143.039 17.4229 142.962 17.6355C142.884 17.8481 142.855 18.0749 142.875 18.3001V22.1792H141.561L141.561 12.9446Z" fill="white"/>
<path d="M154.957 20.386C154.778 20.993 154.391 21.5181 153.864 21.8693C153.336 22.2206 152.702 22.3757 152.071 22.3075C151.632 22.319 151.196 22.2352 150.793 22.0619C150.39 21.8885 150.03 21.6298 149.737 21.3036C149.444 20.9774 149.226 20.5916 149.098 20.173C148.97 19.7544 148.934 19.3129 148.994 18.8793C148.936 18.4443 148.972 18.0019 149.1 17.582C149.228 17.1621 149.445 16.7746 149.736 16.4455C150.027 16.1165 150.386 15.8537 150.787 15.6749C151.189 15.4961 151.625 15.4055 152.065 15.4093C153.918 15.4093 155.036 16.6719 155.036 18.7575V19.2149H150.333V19.2884C150.313 19.5321 150.343 19.7775 150.423 20.0087C150.503 20.2399 150.631 20.4518 150.798 20.631C150.965 20.8101 151.168 20.9525 151.393 21.049C151.619 21.1454 151.862 21.1938 152.107 21.1911C152.421 21.2288 152.74 21.1723 153.022 21.0289C153.304 20.8856 153.537 20.6617 153.692 20.3859L154.957 20.386ZM150.333 18.2455H153.697C153.714 18.0226 153.684 17.7987 153.608 17.5882C153.533 17.3777 153.414 17.1852 153.26 17.0232C153.105 16.8611 152.919 16.7331 152.712 16.6473C152.505 16.5615 152.282 16.5198 152.058 16.5249C151.831 16.5221 151.605 16.5646 151.394 16.6501C151.184 16.7356 150.992 16.8622 150.832 17.0226C150.671 17.1829 150.544 17.3737 150.458 17.5838C150.373 17.7938 150.33 18.0188 150.333 18.2455H150.333Z" fill="white"/>
</g>
<g clip-path="url(#clip1_180122_145927)">
<path fill-rule="evenodd" clip-rule="evenodd" d="M395.627 59.5H211.373C207.309 59.5 204 56.1748 204 52.125V7.875C204 3.81047 207.309 0.5 211.373 0.5H395.627C399.687 0.5 403 3.81047 403 7.875V52.125C403 56.1748 399.687 59.5 395.627 59.5Z" fill="black" fill-opacity="0.87"/>
<path fill-rule="evenodd" clip-rule="evenodd" d="M395.627 1.68074C399.035 1.68074 401.825 4.46521 401.825 7.875V52.125C401.825 55.5348 399.054 58.3193 395.627 58.3193H211.373C207.965 58.3193 205.175 55.5348 205.175 52.125V7.875C205.175 4.46521 207.946 1.68074 211.373 1.68074H395.627ZM395.627 0.5H211.373C207.309 0.5 204 3.82519 204 7.875V52.125C204 56.1895 207.309 59.5 211.373 59.5H395.627C399.687 59.5 403 56.1895 403 52.125V7.875C403 3.82519 399.687 0.5 395.627 0.5Z" fill="#A6A6A6"/>
<path d="M308.834 20.0171C307.505 20.0171 306.385 19.5499 305.499 18.6304C304.62 17.7365 304.129 16.5043 304.151 15.2463C304.151 13.9037 304.605 12.7672 305.499 11.866C306.381 10.9464 307.501 10.4792 308.83 10.4792C310.144 10.4792 311.265 10.9464 312.165 11.866C313.058 12.7966 313.512 13.9332 313.512 15.2463C313.498 16.5926 313.044 17.7292 312.165 18.6267C311.283 19.5536 310.163 20.0171 308.834 20.0171ZM269.292 20.0171C267.993 20.0171 266.865 19.5573 265.943 18.6488C265.027 17.7439 264.562 16.5999 264.562 15.25C264.562 13.9001 265.027 12.7561 265.943 11.8513C266.847 10.9427 267.974 10.4829 269.292 10.4829C269.937 10.4829 270.563 10.6117 271.163 10.8728C271.752 11.1266 272.232 11.4724 272.587 11.8954L272.675 12.0021L271.683 12.9805L271.58 12.8591C271.02 12.1897 270.27 11.8623 269.278 11.8623C268.392 11.8623 267.619 12.1786 266.982 12.8039C266.342 13.4329 266.016 14.2569 266.016 15.2537C266.016 16.2505 266.342 17.0744 266.982 17.7034C267.619 18.3288 268.392 18.6451 269.278 18.6451C270.222 18.6451 271.017 18.3288 271.635 17.7034C272.001 17.3356 272.228 16.8206 272.309 16.1696H269.128V14.7939H273.674L273.693 14.919C273.726 15.1507 273.759 15.3898 273.759 15.6105C273.759 16.8795 273.378 17.9057 272.624 18.6635C271.767 19.561 270.647 20.0171 269.292 20.0171ZM321.866 19.8221H320.464L316.17 12.918L316.207 14.1612V19.8185H314.805V10.6779H316.404L316.448 10.7478L320.486 17.251L320.45 16.0114V10.6779H321.866V19.8221ZM298.298 19.8221H296.877V12.0536H294.413V10.6779H300.758V12.0536H298.294V19.8221H298.298ZM293.257 19.8221H291.84V10.6779H293.257V19.8221ZM285.294 19.8221H283.877V12.0536H281.414V10.6779H287.758V12.0536H285.294V19.8221ZM280.517 19.8074H275.084V10.6779H280.517V12.0536H276.504V14.5622H280.125V15.9231H276.504V18.4317H280.517V19.8074ZM306.538 17.685C307.172 18.3214 307.94 18.6414 308.834 18.6414C309.753 18.6414 310.503 18.3288 311.129 17.685C311.751 17.0597 312.066 16.2395 312.066 15.25C312.066 14.2605 311.751 13.4366 311.133 12.815C310.499 12.1786 309.727 11.8586 308.837 11.8586C307.918 11.8586 307.168 12.1713 306.546 12.815C305.923 13.4403 305.608 14.2605 305.608 15.25C305.608 16.2395 305.92 17.0634 306.538 17.685Z" fill="white"/>
<path fill-rule="evenodd" clip-rule="evenodd" d="M304.02 32.5895C300.56 32.5895 297.756 35.2269 297.756 38.8647C297.756 42.4694 300.579 45.1399 304.02 45.1399C307.479 45.1399 310.284 42.4841 310.284 38.8647C310.284 35.2269 307.479 32.5895 304.02 32.5895ZM304.02 42.6533C302.127 42.6533 300.498 41.079 300.498 38.85C300.498 36.5878 302.131 35.0466 304.02 35.0466C305.913 35.0466 307.542 36.5878 307.542 38.85C307.545 41.0937 305.913 42.6533 304.02 42.6533ZM290.354 32.5895C286.894 32.5895 284.09 35.2269 284.09 38.8647C284.09 42.4694 286.912 45.1399 290.354 45.1399C293.813 45.1399 296.617 42.4841 296.617 38.8647C296.617 35.2269 293.809 32.5895 290.354 32.5895ZM290.354 42.6533C288.461 42.6533 286.832 41.079 286.832 38.85C286.832 36.5878 288.465 35.0466 290.354 35.0466C292.246 35.0466 293.875 36.5878 293.875 38.85C293.875 41.0937 292.246 42.6533 290.354 42.6533ZM274.092 34.5059V37.1616H280.436C280.242 38.6514 279.752 39.7512 279.001 40.5052C278.071 41.4395 276.636 42.4547 274.106 42.4547C270.208 42.4547 267.158 39.2914 267.158 35.374C267.158 31.4566 270.208 28.2933 274.106 28.2933C276.211 28.2933 277.745 29.1282 278.884 30.1949L280.758 28.3116C279.177 26.7888 277.072 25.6228 274.121 25.6228C268.772 25.6228 264.284 30 264.284 35.3593C264.284 40.7333 268.769 45.0957 274.121 45.0957C277.01 45.0957 279.177 44.1467 280.89 42.3591C282.636 40.6045 283.189 38.129 283.189 36.1317C283.189 35.5101 283.142 34.951 283.043 34.4765H274.088C274.092 34.4728 274.092 34.5059 274.092 34.5059ZM340.607 36.5731C340.084 35.1643 338.502 32.5748 335.258 32.5748C332.044 32.5748 329.372 35.1165 329.372 38.85C329.372 42.3738 332.015 45.1252 335.57 45.1252C338.425 45.1252 340.087 43.3706 340.772 42.3407L338.652 40.9135C337.949 41.9618 336.972 42.6497 335.584 42.6497C334.182 42.6497 333.201 42.0096 332.549 40.748L340.9 37.272C340.9 37.2757 340.607 36.5731 340.607 36.5731ZM332.092 38.6697C332.026 36.2457 333.966 35.0135 335.354 35.0135C336.448 35.0135 337.36 35.5542 337.671 36.3414L332.092 38.6697ZM325.308 44.75H328.05V26.3143H325.308V44.75ZM320.805 33.9836H320.706C320.088 33.2442 318.912 32.5748 317.411 32.5748C314.296 32.5748 311.426 35.3298 311.426 38.8684C311.426 42.3922 314.281 45.1141 317.411 45.1141C318.894 45.1141 320.088 44.441 320.706 43.687H320.805V44.5881C320.805 46.9827 319.531 48.2738 317.477 48.2738C315.797 48.2738 314.754 47.06 314.329 46.0447L311.946 47.0452C312.63 48.7005 314.457 50.7493 317.474 50.7493C320.688 50.7493 323.412 48.8476 323.412 44.2093V32.95H320.82V33.9836C320.823 33.9836 320.805 33.9836 320.805 33.9836ZM317.657 42.6533C315.764 42.6533 314.183 41.0643 314.183 38.8684C314.183 36.654 315.764 35.0503 317.657 35.0503C319.531 35.0503 320.985 36.6724 320.985 38.8684C321.003 41.0643 319.535 42.6533 317.657 42.6533ZM353.446 26.3143H346.889V44.75H349.631V37.7686H353.45C356.484 37.7686 359.468 35.5579 359.468 32.0488C359.468 28.5397 356.495 26.3143 353.446 26.3143ZM353.526 35.1937H349.628V28.8671H353.526C355.58 28.8671 356.741 30.5701 356.741 32.0304C356.741 33.476 355.566 35.1937 353.526 35.1937ZM370.458 32.5564C368.467 32.5564 366.413 33.4429 365.564 35.374L367.994 36.3892C368.518 35.374 369.477 35.0282 370.491 35.0282C371.912 35.0282 373.347 35.8816 373.38 37.4044V37.5994C372.889 37.3198 371.813 36.8931 370.524 36.8931C367.899 36.8931 365.238 38.335 365.238 41.0386C365.238 43.5141 367.39 45.1031 369.788 45.1031C371.63 45.1031 372.644 44.2681 373.277 43.3007H373.376V44.7279H376.019V37.6656C376.019 34.3772 373.588 32.5564 370.458 32.5564ZM370.114 42.6533C369.217 42.6533 367.961 42.212 367.961 41.079C367.961 39.6519 369.528 39.1111 370.865 39.1111C372.073 39.1111 372.644 39.3723 373.361 39.7328C373.164 41.388 371.772 42.6386 370.114 42.6533ZM385.662 32.95L382.514 40.9466H382.415L379.153 32.95H376.202L381.097 44.1283L378.307 50.341H381.163L388.693 32.95H385.662ZM360.98 44.75H363.722V26.3143H360.98V44.75Z" fill="white"/>
<path fill-rule="evenodd" clip-rule="evenodd" d="M219.317 11.612C218.893 12.0718 218.647 12.7744 218.647 13.6939V46.3095C218.647 47.229 218.893 47.9316 219.332 48.373L219.446 48.4723L237.633 30.1985V29.7902L219.431 11.5127L219.317 11.612Z" fill="url(#paint0_linear_180122_145927)"/>
<path fill-rule="evenodd" clip-rule="evenodd" d="M243.684 36.3082L237.618 30.2133V29.7866L243.684 23.6917L243.816 23.7726L250.992 27.8702C253.045 29.0325 253.045 30.9526 250.992 32.1297L243.816 36.2273L243.684 36.3082Z" fill="url(#paint1_linear_180122_145927)"/>
<path fill-rule="evenodd" clip-rule="evenodd" d="M243.816 36.2274L237.618 30L219.317 48.3878C219.987 49.1088 221.111 49.1897 222.367 48.4872L243.816 36.2274Z" fill="url(#paint2_linear_180122_145927)"/>
<path fill-rule="evenodd" clip-rule="evenodd" d="M243.816 23.7726L222.367 11.5312C221.111 10.8103 219.984 10.9096 219.317 11.6305L237.618 30L243.816 23.7726Z" fill="url(#paint3_linear_180122_145927)"/>
<path opacity="0.2" fill-rule="evenodd" clip-rule="evenodd" d="M243.685 36.095L222.382 48.2554C221.192 48.9432 220.13 48.8954 219.446 48.2701L219.332 48.3841L219.446 48.4835C220.13 49.1051 221.192 49.1566 222.382 48.4687L243.831 36.2274L243.685 36.095Z" fill="black" fill-opacity="0.87"/>
<path opacity="0.12" fill-rule="evenodd" clip-rule="evenodd" d="M250.991 31.9164L243.666 36.0949L243.798 36.2274L250.973 32.1297C252.002 31.5412 252.507 30.7688 252.507 30C252.445 30.7062 251.921 31.3757 250.991 31.9164Z" fill="black" fill-opacity="0.87"/>
<path opacity="0.25" fill-rule="evenodd" clip-rule="evenodd" d="M222.367 11.7446L250.992 28.0837C251.922 28.6097 252.445 29.2975 252.526 30.0001C252.526 29.2313 252.02 28.4588 250.992 27.8703L222.367 11.5313C220.313 10.3505 218.647 11.3363 218.647 13.6941V13.9075C218.647 11.546 220.313 10.5786 222.367 11.7446Z" fill="white"/>
</g>
<defs>
<linearGradient id="paint0_linear_180122_145927" x1="236.002" y1="13.342" x2="206.85" y2="21.0727" gradientUnits="userSpaceOnUse">
<stop stop-color="#00A0FF"/>
<stop offset="0.00657" stop-color="#00A1FF"/>
<stop offset="0.2601" stop-color="#00BEFF"/>
<stop offset="0.5122" stop-color="#00D2FF"/>
<stop offset="0.7604" stop-color="#00DFFF"/>
<stop offset="1" stop-color="#00E3FF"/>
</linearGradient>
<linearGradient id="paint1_linear_180122_145927" x1="253.67" y1="30" x2="218.148" y2="30" gradientUnits="userSpaceOnUse">
<stop stop-color="#FFE000"/>
<stop offset="0.4087" stop-color="#FFBD00"/>
<stop offset="0.7754" stop-color="#FFA500"/>
<stop offset="1" stop-color="#FF9C00"/>
</linearGradient>
<linearGradient id="paint2_linear_180122_145927" x1="240.446" y1="33.3886" x2="216.894" y2="72.8414" gradientUnits="userSpaceOnUse">
<stop stop-color="#FF3A44"/>
<stop offset="1" stop-color="#C31162"/>
</linearGradient>
<linearGradient id="paint3_linear_180122_145927" x1="214.709" y1="0.763692" x2="225.217" y2="18.384" gradientUnits="userSpaceOnUse">
<stop stop-color="#32A071"/>
<stop offset="0.0685" stop-color="#2DA771"/>
<stop offset="0.4762" stop-color="#15CF74"/>
<stop offset="0.8009" stop-color="#06E775"/>
<stop offset="1" stop-color="#00F076"/>
</linearGradient>
<clipPath id="clip0_180122_145927">
<rect width="177" height="59" fill="white" transform="translate(0 0.5)"/>
</clipPath>
<clipPath id="clip1_180122_145927">
<rect width="199" height="59" fill="white" transform="translate(204 0.5)"/>
</clipPath>
</defs>
</svg>
