<svg width="22" height="23" viewBox="0 0 22 23" fill="none" xmlns="http://www.w3.org/2000/svg">
<g clip-path="url(#clip0_179906_138701)">
<path d="M20.0449 4.0971L11.7949 0.659602C11.5854 0.572332 11.2295 0.500488 11.0026 0.500488C10.7743 0.500488 10.4204 0.572332 10.2094 0.659602L1.9598 4.0971C1.19023 4.41464 0.6875 5.16659 0.6875 5.96152C0.6875 17.0518 8.81719 22.5002 10.9957 22.5002C13.1957 22.5002 21.3125 16.9916 21.3125 5.96152C21.3125 5.16659 20.8098 4.41464 20.0449 4.0971ZM15.125 9.09394C15.125 9.3316 15.0433 9.57046 14.8766 9.76511L10.7516 14.5776C10.4629 14.9162 10.0805 14.899 9.96875 14.899C9.69616 14.899 9.43293 14.7903 9.23957 14.5969L7.17707 12.5344C6.97383 12.3725 6.875 12.106 6.875 11.8053C6.875 11.2557 7.31758 10.774 7.90625 10.774C8.17012 10.774 8.43391 10.8747 8.63543 11.0761L9.91117 12.3519L13.3113 8.38414C13.5158 8.14643 13.8046 8.02483 14.095 8.02483C14.8844 8.06269 15.125 8.77597 15.125 9.09394Z" fill="#0EA5E9"/>
</g>
<defs>
<clipPath id="clip0_179906_138701">
<rect width="22" height="22" fill="white" transform="translate(0 0.5)"/>
</clipPath>
</defs>
</svg>
