<svg width="15" height="14" viewBox="0 0 15 14" fill="none" xmlns="http://www.w3.org/2000/svg">
<g clip-path="url(#clip0_180122_161411)">
<path d="M14.3204 0.15323C14.5966 0.344636 14.7415 0.675495 14.6895 1.00635L12.9395 12.3814C12.8985 12.6466 12.7372 12.879 12.502 13.0103C12.2669 13.1415 11.9852 13.1579 11.7364 13.054L8.4661 11.695L6.59306 13.7212C6.3497 13.9864 5.96689 14.0739 5.63056 13.9427C5.29423 13.8114 5.07548 13.486 5.07548 13.1251V10.8392C5.07548 10.7298 5.1165 10.6259 5.19032 10.5466L9.77314 5.54542C9.93173 5.37315 9.92626 5.10792 9.7622 4.94385C9.59813 4.77979 9.3329 4.76886 9.16063 4.92471L3.59892 9.86573L1.18446 8.65714C0.894621 8.51221 0.708683 8.22237 0.70048 7.89971C0.692277 7.57706 0.861808 7.27628 1.14071 7.11495L13.3907 0.114948C13.6833 -0.0518486 14.0442 -0.0354423 14.3204 0.15323Z" fill="#D4D4D8"/>
</g>
<defs>
<clipPath id="clip0_180122_161411">
<rect width="14" height="14" fill="white" transform="translate(0.700195)"/>
</clipPath>
</defs>
</svg>
