<svg width="15" height="13" viewBox="0 0 15 13" fill="none" xmlns="http://www.w3.org/2000/svg">
<g clip-path="url(#clip0_179906_138732)">
<path d="M12.3751 11.75H7.8751V3.44844C8.51963 3.28145 8.979 2.69844 8.979 2.00117H12.354C12.5603 2.00117 12.729 1.8324 12.729 1.62617C12.729 1.4199 12.5602 1.25117 12.354 1.25117H8.76572C8.76279 1.24531 8.66318 0.990547 8.31736 0.756172C8.1001 0.59375 7.81181 0.5 7.5001 0.5C7.18838 0.5 6.9001 0.59375 6.66103 0.755C6.3165 0.989375 6.21572 1.24414 6.21338 1.25H2.604C2.39773 1.25 2.229 1.41873 2.229 1.625C2.229 1.83123 2.39778 2 2.604 2H5.979C5.979 2.69727 6.45947 3.28039 7.08291 3.44727V11.75H2.604C2.39773 11.75 2.22924 11.9187 2.22924 12.125C2.22924 12.3312 2.39799 12.5 2.60424 12.5H12.3542C12.5605 12.5 12.7292 12.3312 12.7292 12.125C12.7501 11.9187 12.5813 11.75 12.3751 11.75ZM6.729 2C6.729 1.58703 7.06603 1.25 7.479 1.25C7.89197 1.25 8.229 1.58703 8.229 2C8.229 2.41297 7.9126 2.75 7.5001 2.75C7.0876 2.75 6.729 2.4132 6.729 2ZM14.8688 7.04141L12.3142 2.9375C12.2368 2.80578 12.1196 2.75 12.0001 2.75C11.8799 2.75 11.7631 2.80566 11.687 2.91699L9.13228 7.0209C9.04146 7.15566 8.98873 7.31691 9.00338 7.48098C9.129 9.04063 10.4228 10.25 12.0001 10.25C13.5763 10.25 14.8712 9.03992 14.9978 7.50078C15.0118 7.33672 14.9603 7.17734 14.8688 7.04141ZM12.0001 9.5C11.0244 9.5 10.1835 8.86438 9.87291 8H14.1174C13.8048 8.87422 12.9681 9.5 12.0001 9.5ZM9.88603 7.25L12.0015 3.83281L14.1329 7.25H9.88603ZM5.99775 7.50078C6.0124 7.33672 5.95967 7.17547 5.86885 7.0407L3.31416 2.9368C3.23681 2.80578 3.11963 2.75 2.979 2.75C2.88056 2.75 2.76338 2.80578 2.68603 2.91641L0.131322 7.04141C0.040502 7.17734 -0.0122207 7.33672 0.00242776 7.50078C0.128393 9.04063 1.42369 10.25 2.979 10.25C4.57744 10.25 5.87119 9.04063 5.99775 7.50078ZM2.979 3.83516L5.11181 7.25H0.884393L2.979 3.83516ZM0.872674 8H5.11721C4.80361 8.87305 3.96572 9.5 2.99892 9.5C2.02416 9.5 1.18322 8.86484 0.872674 8Z" fill="#6D28D9"/>
</g>
<defs>
<clipPath id="clip0_179906_138732">
<rect width="15" height="12" fill="white" transform="translate(0 0.5)"/>
</clipPath>
</defs>
</svg>
