<svg width="117" height="29" viewBox="0 0 117 29" fill="none" xmlns="http://www.w3.org/2000/svg">
<g filter="url(#filter0_d_180004_138943)">
<rect x="16" y="4.63965" width="98" height="17" rx="8.5" fill="#FDB947"/>
</g>
<g filter="url(#filter1_d_180004_138943)">
<rect x="1" y="1.63965" width="24.3646" height="23.7206" rx="11.8603" fill="#EAA32E" shape-rendering="crispEdges"/>
<path fill-rule="evenodd" clip-rule="evenodd" d="M14.5893 6.47492C13.9819 5.36122 12.3828 5.36122 11.7754 6.47492L10.3491 9.0902C10.1186 9.51285 9.71028 9.80948 9.23708 9.89809L6.30907 10.4464C5.06219 10.6799 4.56803 12.2008 5.43953 13.1226L6.40582 14.1446C8.06018 12.986 12.5936 10.9822 17.6626 12.1342C17.4881 12.1604 17.3036 12.1865 17.1107 12.2139C14.1797 12.6298 9.28618 13.3242 7.66018 18.5257L7.52748 19.5486C7.36418 20.8066 8.65798 21.7465 9.80398 21.2026L12.4951 19.9251C12.93 19.7187 13.4347 19.7187 13.8696 19.9251L16.5607 21.2026C17.7067 21.7465 19.0004 20.8066 18.8372 19.5486L18.4538 16.5944C18.3919 16.117 18.5478 15.6371 18.8786 15.2872L20.9251 13.1226C21.7966 12.2008 21.3024 10.6799 20.0556 10.4464L17.1275 9.89809C16.6543 9.80948 16.2461 9.51285 16.0156 9.0902L14.5893 6.47492Z" fill="white"/>
</g>
<path d="M33.3753 12.6412C33.3753 12.9568 33.3009 13.2545 33.152 13.5344C33.0031 13.8143 32.765 14.0435 32.4375 14.2222C32.11 14.3949 31.6902 14.4812 31.1781 14.4812H30.0526V17H29.0344V10.7923H31.1781C31.6544 10.7923 32.0564 10.8757 32.3839 11.0424C32.7173 11.2032 32.9644 11.4235 33.1252 11.7034C33.2919 11.9832 33.3753 12.2959 33.3753 12.6412ZM31.1781 13.6505C31.5651 13.6505 31.8539 13.5642 32.0445 13.3915C32.235 13.2129 32.3303 12.9628 32.3303 12.6412C32.3303 11.9624 31.9462 11.623 31.1781 11.623H30.0526V13.6505H31.1781ZM35.2307 12.7931C35.3796 12.543 35.5761 12.3494 35.8202 12.2125C36.0703 12.0696 36.3651 11.9981 36.7045 11.9981V13.0521H36.4454C36.0465 13.0521 35.7428 13.1533 35.5344 13.3558C35.3319 13.5582 35.2307 13.9096 35.2307 14.4097V17H34.2125V12.0785H35.2307V12.7931ZM42.0171 14.4187C42.0171 14.6033 42.0052 14.77 41.9814 14.9189H38.221C38.2508 15.3119 38.3967 15.6275 38.6587 15.8656C38.9207 16.1038 39.2422 16.2229 39.6233 16.2229C40.1712 16.2229 40.5582 15.9937 40.7845 15.5352H41.8831C41.7342 15.9877 41.4633 16.3599 41.0703 16.6517C40.6833 16.9375 40.2009 17.0804 39.6233 17.0804C39.1529 17.0804 38.7301 16.9762 38.355 16.7678C37.9858 16.5534 37.694 16.2557 37.4797 15.8746C37.2713 15.4875 37.1671 15.0409 37.1671 14.5348C37.1671 14.0286 37.2683 13.585 37.4707 13.2039C37.6791 12.8169 37.9679 12.5192 38.3371 12.3107C38.7123 12.1023 39.141 11.9981 39.6233 11.9981C40.0878 11.9981 40.5016 12.0994 40.8649 12.3018C41.2281 12.5043 41.5109 12.7901 41.7134 13.1593C41.9159 13.5225 42.0171 13.9423 42.0171 14.4187ZM40.9542 14.0971C40.9482 13.722 40.8143 13.4213 40.5523 13.195C40.2902 12.9687 39.9657 12.8556 39.5787 12.8556C39.2273 12.8556 38.9266 12.9687 38.6765 13.195C38.4265 13.4153 38.2776 13.716 38.23 14.0971H40.9542ZM48.8427 11.9981C49.2298 11.9981 49.5752 12.0785 49.8789 12.2393C50.1885 12.4001 50.4297 12.6382 50.6023 12.9538C50.781 13.2694 50.8703 13.6505 50.8703 14.0971V17H49.861V14.249C49.861 13.8083 49.7508 13.4719 49.5305 13.2397C49.3102 13.0015 49.0095 12.8824 48.6284 12.8824C48.2473 12.8824 47.9436 13.0015 47.7173 13.2397C47.497 13.4719 47.3868 13.8083 47.3868 14.249V17H46.3775V14.249C46.3775 13.8083 46.2674 13.4719 46.0471 13.2397C45.8267 13.0015 45.526 12.8824 45.1449 12.8824C44.7638 12.8824 44.4602 13.0015 44.2339 13.2397C44.0136 13.4719 43.9034 13.8083 43.9034 14.249V17H42.8852V12.0785H43.9034V12.6412C44.0701 12.4388 44.2815 12.281 44.5376 12.1678C44.7936 12.0547 45.0675 11.9981 45.3593 11.9981C45.7523 11.9981 46.1036 12.0815 46.4133 12.2482C46.7229 12.4149 46.9611 12.6561 47.1278 12.9717C47.2767 12.674 47.5089 12.4388 47.8245 12.2661C48.1401 12.0874 48.4795 11.9981 48.8427 11.9981ZM52.5501 11.4265C52.3655 11.4265 52.2106 11.364 52.0856 11.2389C51.9605 11.1139 51.898 10.959 51.898 10.7744C51.898 10.5899 51.9605 10.435 52.0856 10.31C52.2106 10.1849 52.3655 10.1224 52.5501 10.1224C52.7287 10.1224 52.8805 10.1849 53.0056 10.31C53.1306 10.435 53.1932 10.5899 53.1932 10.7744C53.1932 10.959 53.1306 11.1139 53.0056 11.2389C52.8805 11.364 52.7287 11.4265 52.5501 11.4265ZM53.0502 12.0785V17H52.032V12.0785H53.0502ZM58.7102 12.0785V17H57.6919V16.4194C57.5311 16.6219 57.3198 16.7827 57.0577 16.9017C56.8017 17.0149 56.5278 17.0715 56.236 17.0715C55.849 17.0715 55.5006 16.9911 55.191 16.8303C54.8873 16.6695 54.6461 16.4313 54.4675 16.1157C54.2948 15.8001 54.2085 15.419 54.2085 14.9725V12.0785H55.2178V14.8206C55.2178 15.2613 55.3279 15.6007 55.5483 15.8388C55.7686 16.0711 56.0693 16.1872 56.4504 16.1872C56.8315 16.1872 57.1322 16.0711 57.3525 15.8388C57.5788 15.6007 57.6919 15.2613 57.6919 14.8206V12.0785H58.7102ZM65.8773 11.9981C66.2643 11.9981 66.6097 12.0785 66.9134 12.2393C67.223 12.4001 67.4642 12.6382 67.6368 12.9538C67.8155 13.2694 67.9048 13.6505 67.9048 14.0971V17H66.8955V14.249C66.8955 13.8083 66.7853 13.4719 66.565 13.2397C66.3447 13.0015 66.044 12.8824 65.6629 12.8824C65.2818 12.8824 64.9781 13.0015 64.7518 13.2397C64.5315 13.4719 64.4213 13.8083 64.4213 14.249V17H63.412V14.249C63.412 13.8083 63.3019 13.4719 63.0816 13.2397C62.8612 13.0015 62.5605 12.8824 62.1794 12.8824C61.7983 12.8824 61.4947 13.0015 61.2684 13.2397C61.0481 13.4719 60.9379 13.8083 60.9379 14.249V17H59.9197V12.0785H60.9379V12.6412C61.1046 12.4388 61.316 12.281 61.5721 12.1678C61.8281 12.0547 62.102 11.9981 62.3938 11.9981C62.7868 11.9981 63.1381 12.0815 63.4478 12.2482C63.7574 12.4149 63.9956 12.6561 64.1623 12.9717C64.3112 12.674 64.5434 12.4388 64.859 12.2661C65.1746 12.0874 65.514 11.9981 65.8773 11.9981ZM72.271 16.1783H74.37V17H71.2527V10.7923H72.271V16.1783ZM74.7481 14.5169C74.7481 14.0227 74.8493 13.585 75.0518 13.2039C75.2602 12.8228 75.5401 12.5281 75.8914 12.3197C76.2487 12.1053 76.6417 11.9981 77.0704 11.9981C77.4575 11.9981 77.7939 12.0755 78.0797 12.2304C78.3715 12.3792 78.6037 12.5668 78.7764 12.7931V12.0785H79.8036V17H78.7764V16.2676C78.6037 16.4998 78.3685 16.6933 78.0708 16.8482C77.7731 17.003 77.4336 17.0804 77.0526 17.0804C76.6298 17.0804 76.2427 16.9732 75.8914 16.7588C75.5401 16.5385 75.2602 16.2348 75.0518 15.8478C74.8493 15.4548 74.7481 15.0112 74.7481 14.5169ZM78.7764 14.5348C78.7764 14.1954 78.705 13.9006 78.562 13.6505C78.4251 13.4004 78.2435 13.2099 78.0172 13.0789C77.7909 12.9479 77.5468 12.8824 77.2848 12.8824C77.0228 12.8824 76.7786 12.9479 76.5524 13.0789C76.3261 13.2039 76.1415 13.3915 75.9986 13.6416C75.8616 13.8857 75.7932 14.1775 75.7932 14.5169C75.7932 14.8563 75.8616 15.1541 75.9986 15.4101C76.1415 15.6662 76.3261 15.8627 76.5524 15.9996C76.7846 16.1306 77.0287 16.1961 77.2848 16.1961C77.5468 16.1961 77.7909 16.1306 78.0172 15.9996C78.2435 15.8686 78.4251 15.6781 78.562 15.428C78.705 15.1719 78.7764 14.8742 78.7764 14.5348ZM87.6166 12.0785L86.0893 17H85.0175L84.026 13.3647L83.0346 17H81.9627L80.4264 12.0785H81.4625L82.4897 16.0354L83.5348 12.0785H84.5977L85.598 16.0175L86.6163 12.0785H87.6166ZM92.6739 12.0785L89.6549 19.3134H88.6009L89.6013 16.9196L87.663 12.0785H88.7974L90.1819 15.8299L91.6199 12.0785H92.6739ZM97.8189 14.4187C97.8189 14.6033 97.807 14.77 97.7832 14.9189H94.0229C94.0526 15.3119 94.1985 15.6275 94.4605 15.8656C94.7225 16.1038 95.0441 16.2229 95.4252 16.2229C95.973 16.2229 96.36 15.9937 96.5863 15.5352H97.6849C97.5361 15.9877 97.2651 16.3599 96.8721 16.6517C96.4851 16.9375 96.0028 17.0804 95.4252 17.0804C94.9548 17.0804 94.532 16.9762 94.1568 16.7678C93.7877 16.5534 93.4959 16.2557 93.2815 15.8746C93.0731 15.4875 92.9689 15.0409 92.9689 14.5348C92.9689 14.0286 93.0701 13.585 93.2726 13.2039C93.481 12.8169 93.7698 12.5192 94.139 12.3107C94.5141 12.1023 94.9428 11.9981 95.4252 11.9981C95.8896 11.9981 96.3035 12.0994 96.6667 12.3018C97.0299 12.5043 97.3128 12.7901 97.5152 13.1593C97.7177 13.5225 97.8189 13.9423 97.8189 14.4187ZM96.756 14.0971C96.7501 13.722 96.6161 13.4213 96.3541 13.195C96.0921 12.9687 95.7676 12.8556 95.3805 12.8556C95.0292 12.8556 94.7285 12.9687 94.4784 13.195C94.2283 13.4153 94.0794 13.716 94.0318 14.0971H96.756ZM99.7052 12.7931C99.8541 12.543 100.051 12.3494 100.295 12.2125C100.545 12.0696 100.84 11.9981 101.179 11.9981V13.0521H100.92C100.521 13.0521 100.217 13.1533 100.009 13.3558C99.8065 13.5582 99.7052 13.9096 99.7052 14.4097V17H98.687V12.0785H99.7052V12.7931Z" fill="#92400E"/>
<defs>
<filter id="filter0_d_180004_138943" x="15" y="3.63965" width="102" height="21" filterUnits="userSpaceOnUse" color-interpolation-filters="sRGB">
<feFlood flood-opacity="0" result="BackgroundImageFix"/>
<feColorMatrix in="SourceAlpha" type="matrix" values="0 0 0 0 0 0 0 0 0 0 0 0 0 0 0 0 0 0 127 0" result="hardAlpha"/>
<feOffset dx="1" dy="1"/>
<feGaussianBlur stdDeviation="1"/>
<feComposite in2="hardAlpha" operator="out"/>
<feColorMatrix type="matrix" values="0 0 0 0 0 0 0 0 0 0 0 0 0 0 0 0 0 0 0.25 0"/>
<feBlend mode="normal" in2="BackgroundImageFix" result="effect1_dropShadow_180004_138943"/>
<feBlend mode="normal" in="SourceGraphic" in2="effect1_dropShadow_180004_138943" result="shape"/>
</filter>
<filter id="filter1_d_180004_138943" x="0" y="0.639648" width="28.3645" height="27.7207" filterUnits="userSpaceOnUse" color-interpolation-filters="sRGB">
<feFlood flood-opacity="0" result="BackgroundImageFix"/>
<feColorMatrix in="SourceAlpha" type="matrix" values="0 0 0 0 0 0 0 0 0 0 0 0 0 0 0 0 0 0 127 0" result="hardAlpha"/>
<feOffset dx="1" dy="1"/>
<feGaussianBlur stdDeviation="1"/>
<feComposite in2="hardAlpha" operator="out"/>
<feColorMatrix type="matrix" values="0 0 0 0 0 0 0 0 0 0 0 0 0 0 0 0 0 0 0.25 0"/>
<feBlend mode="normal" in2="BackgroundImageFix" result="effect1_dropShadow_180004_138943"/>
<feBlend mode="normal" in="SourceGraphic" in2="effect1_dropShadow_180004_138943" result="shape"/>
</filter>
</defs>
</svg>
