<svg width="23" height="19" viewBox="0 0 23 19" fill="none" xmlns="http://www.w3.org/2000/svg">
<path d="M7.5427 0.666504C11.5252 0.666504 14.752 3.34896 14.752 6.65777C14.752 9.96658 11.5252 12.649 7.5427 12.649C6.89455 12.649 6.2672 12.5707 5.66758 12.438C4.60698 13.0848 3.07604 13.7384 1.19815 13.7384C0.852237 13.7384 0.538909 13.5375 0.403318 13.2243C0.267658 12.9111 0.333118 12.5503 0.566949 12.3052C0.585007 12.2916 1.35169 11.4712 1.91839 10.3989C0.928836 9.37426 0.333374 8.07388 0.333374 6.65777C0.333374 3.34896 3.56128 0.666504 7.5427 0.666504ZM6.03844 10.8142C6.54448 10.9572 7.05052 11.0151 7.5427 11.0151C10.5997 11.0151 13.0883 9.06108 13.0883 6.65777C13.0883 4.25445 10.5997 2.30049 7.5427 2.30049C4.48567 2.30049 1.99706 4.25445 1.99706 6.65777C1.99706 7.85602 2.6109 8.74109 3.12595 9.27554L3.9415 10.1232L3.39422 11.1546C3.27048 11.3589 3.13149 11.6244 2.98661 11.8491C3.60044 11.6755 4.20492 11.4065 4.79414 11.0185L5.37297 10.6951L6.03844 10.8142ZM15.6393 5.0306C19.4658 5.17357 22.5159 7.79815 22.5159 11.0151C22.5159 12.4312 21.9197 13.7315 20.9319 14.7562C21.4969 15.8285 22.2629 16.6489 22.2837 16.6625C22.5159 16.9076 22.5818 17.2684 22.4154 17.5816C22.3114 17.8948 21.996 18.0956 21.6494 18.0956C19.7743 18.0956 18.2423 17.442 17.1817 16.7953C16.5821 16.928 15.9547 17.0063 15.3066 17.0063C12.4644 17.0063 10.007 15.6379 8.83206 13.6532C9.43168 13.575 10.007 13.4422 10.5547 13.2584C11.5252 14.5247 13.2928 15.3723 15.3066 15.3723C15.7988 15.3723 16.3048 15.3145 16.8108 15.1715L17.4763 15.0523L18.0551 15.3757C18.6444 15.7638 19.2474 16.0327 19.8644 16.2063C19.7188 15.9817 19.5802 15.7162 19.4554 15.5119L18.9078 14.4805L19.7223 13.6328C20.2387 13.1018 20.8522 12.2133 20.8522 11.0151C20.8522 8.75811 18.6582 6.89946 15.83 6.67819L15.8611 6.65777C15.8611 6.09609 15.7849 5.55143 15.6393 5.0306Z" fill="#10B981"/>
</svg>
