<svg width="126" height="22" viewBox="0 0 126 22" fill="none" xmlns="http://www.w3.org/2000/svg">
<path d="M10.9853 0L13.4516 7.60081H21.4329L14.9759 12.2984L17.4422 19.8992L10.9853 15.2016L4.52828 19.8992L6.99463 12.2984L0.537657 7.60081H8.51891L10.9853 0Z" fill="#F59E0B"/>
<path d="M36.9557 0L39.4221 7.60081H47.4033L40.9463 12.2984L43.4127 19.8992L36.9557 15.2016L30.4987 19.8992L32.9651 12.2984L26.5081 7.60081H34.4894L36.9557 0Z" fill="#F59E0B"/>
<path d="M62.9263 0L65.3926 7.60081H73.3739L66.9169 12.2984L69.3833 19.8992L62.9263 15.2016L56.4693 19.8992L58.9357 12.2984L52.4787 7.60081H60.46L62.9263 0Z" fill="#F59E0B"/>
<path d="M88.8968 1.62L90.8875 7.75513L90.9997 8.10081H91.3631H97.8072L92.5932 11.8941L92.2998 12.1075L92.4118 12.4527L94.403 18.5892L89.1909 14.7973L88.8968 14.5833L88.6026 14.7973L83.3905 18.5892L85.3817 12.4527L85.4937 12.1075L85.2003 11.8941L79.9863 8.10081H86.4304H86.7938L86.906 7.75513L88.8968 1.62Z" fill="url(#paint0_angular_179959_138685)" stroke="#F59E0B"/>
<path d="M114.867 1.62L116.858 7.75513L116.97 8.10081H117.334H123.778L118.564 11.8941L118.27 12.1075L118.382 12.4527L120.374 18.5892L115.161 14.7973L114.867 14.5833L114.573 14.7973L109.361 18.5892L111.352 12.4527L111.464 12.1075L111.171 11.8941L105.957 8.10081H112.401H112.764L112.877 7.75513L114.867 1.62Z" stroke="#F59E0B"/>
<defs>
<radialGradient id="paint0_angular_179959_138685" cx="0" cy="0" r="1" gradientUnits="userSpaceOnUse" gradientTransform="translate(88.8968 11) rotate(90) scale(11 10.9853)">
<stop stop-color="#F59E0B"/>
<stop offset="0.496384" stop-color="#F59E0B"/>
<stop offset="0.499092" stop-color="#F59E0B" stop-opacity="0.497433"/>
<stop offset="0.998605" stop-color="white" stop-opacity="0"/>
</radialGradient>
</defs>
</svg>
