<svg width="27" height="26" viewBox="0 0 27 26" fill="none" xmlns="http://www.w3.org/2000/svg">
<path d="M23.2043 0H3.70435C1.91431 0 0.454346 1.45996 0.454346 3.2043V17.7836C0.454346 19.5736 1.91431 20.9879 3.70435 20.9879H8.57935V25.2525C8.57935 25.752 9.13895 26.0421 9.55028 25.7451L15.8929 20.9879H23.2054C24.9954 20.9879 26.4554 19.5279 26.4554 17.7836V3.2043C26.4543 1.45996 25.0375 0 23.2043 0ZM24.875 17.875C24.875 18.7688 24.1438 19.5 23.25 19.5H15.9325C15.5807 19.5 15.2383 19.6142 14.957 19.8253L10.25 23.3594V20.3125C10.25 19.8637 9.88625 19.5 9.43755 19.5H3.75005C2.8563 19.5 2.12505 18.7688 2.12505 17.875V3.25C2.12505 2.35625 2.8563 1.625 3.75005 1.625H23.25C24.1438 1.625 24.875 2.35625 24.875 3.25V17.875Z" fill="#6D28D9"/>
</svg>
