<svg width="19" height="19" viewBox="0 0 19 19" fill="none" xmlns="http://www.w3.org/2000/svg">
<path d="M9.99059 3.64795C10.5731 3.64795 11.0458 4.1291 11.0458 4.72265V11.8828C10.206 12.362 9.63887 13.2754 9.63887 14.3255C9.63887 14.6143 9.71801 14.883 9.8565 15.1114H7.88028V13.3202C7.88028 12.7269 7.40766 12.2455 6.82512 12.2455C6.24259 12.2455 5.76996 12.7269 5.76996 13.3202V15.1114H3.65965C3.07689 15.1114 2.60449 14.63 2.60449 14.0367V4.72265C2.60449 4.1291 3.07689 3.64795 3.65965 3.64795H9.99059ZM4.01137 9.7379C4.01137 9.93493 4.16876 10.0961 4.36309 10.0961H5.06653C5.25997 10.0961 5.41824 9.93493 5.41824 9.7379V9.02144C5.41824 8.82441 5.25997 8.6632 5.06653 8.6632H4.36309C4.16876 8.6632 4.01137 8.82441 4.01137 9.02144V9.7379ZM6.4734 8.6632C6.27996 8.6632 6.12168 8.82441 6.12168 9.02144V9.7379C6.12168 9.93493 6.27996 10.0961 6.4734 10.0961H7.17684C7.37029 10.0961 7.52856 9.93493 7.52856 9.7379V9.02144C7.52856 8.82441 7.37029 8.6632 7.17684 8.6632H6.4734ZM8.232 9.7379C8.232 9.93493 8.39027 10.0961 8.58372 10.0961H9.28715C9.4806 10.0961 9.63887 9.93493 9.63887 9.7379V9.02144C9.63887 8.82441 9.4806 8.6632 9.28715 8.6632H8.58372C8.39027 8.6632 8.232 8.82441 8.232 9.02144V9.7379ZM4.36309 5.79734C4.16876 5.79734 4.01137 5.95855 4.01137 6.15558V6.87204C4.01137 7.06907 4.16876 7.23027 4.36309 7.23027H5.06653C5.25997 7.23027 5.41824 7.06907 5.41824 6.87204V6.15558C5.41824 5.95855 5.25997 5.79734 5.06653 5.79734H4.36309ZM6.12168 6.87204C6.12168 7.06907 6.27996 7.23027 6.4734 7.23027H7.17684C7.37029 7.23027 7.52856 7.06907 7.52856 6.87204V6.15558C7.52856 5.95855 7.37029 5.79734 7.17684 5.79734H6.4734C6.27996 5.79734 6.12168 5.95855 6.12168 6.15558V6.87204ZM8.58372 5.79734C8.39027 5.79734 8.232 5.95855 8.232 6.15558V6.87204C8.232 7.06907 8.39027 7.23027 8.58372 7.23027H9.28715C9.4806 7.23027 9.63887 7.06907 9.63887 6.87204V6.15558C9.63887 5.95855 9.4806 5.79734 9.28715 5.79734H8.58372ZM15.2664 9.7379C15.2664 10.7275 14.4794 11.5291 13.5078 11.5291C12.5362 11.5291 11.7492 10.7275 11.7492 9.7379C11.7492 8.74828 12.5362 7.94674 13.5078 7.94674C14.4794 7.94674 15.2664 8.74828 15.2664 9.7379ZM10.3423 14.33C10.3423 13.1792 11.259 12.2455 12.3889 12.2455H14.6267C15.7566 12.2455 16.6733 13.1792 16.6733 14.33C16.6733 14.7621 16.3303 15.1114 15.9061 15.1114H11.1095C10.6852 15.1114 10.3423 14.7621 10.3423 14.33Z" fill="#52525B"/>
</svg>
