<svg width="116" height="30" viewBox="0 0 116 30" fill="none" xmlns="http://www.w3.org/2000/svg">
<g clip-path="url(#clip0_179491_138629)">
<path d="M11.4999 29.7049H11.4505C8.63226 29.7049 6.3417 27.406 6.3417 24.5825V13.4597C6.3417 12.7798 5.78927 12.2259 5.11109 12.2259C4.4329 12.2259 3.88047 12.7798 3.88047 13.4597V20.3113H0V13.4597C0 10.634 2.2928 8.3374 5.10884 8.3374C7.92488 8.3374 10.2199 10.6363 10.2199 13.4597V24.5825C10.2199 25.2625 10.7724 25.8164 11.4505 25.8164H11.4999C12.1781 25.8164 12.7306 25.2625 12.7306 24.5825V13.4597C12.7306 10.634 15.0234 8.3374 17.8394 8.3374H17.9382C20.7565 8.3374 23.047 10.6363 23.047 13.4597V24.2358H19.1666V13.4597C19.1666 12.7798 18.6141 12.2259 17.936 12.2259H17.8371C17.159 12.2259 16.6065 12.7798 16.6065 13.4597V24.5825C16.6065 27.4083 14.3137 29.7049 11.4977 29.7049H11.4999Z" fill="url(#paint0_linear_179491_138629)"/>
<path d="M17.8035 6.62415C19.6278 6.62415 21.1068 5.14128 21.1068 3.31207C21.1068 1.48287 19.6278 0 17.8035 0C15.9791 0 14.5001 1.48287 14.5001 3.31207C14.5001 5.14128 15.9791 6.62415 17.8035 6.62415Z" fill="#6D28D9"/>
<path d="M5.01003 6.6242C6.22174 6.6242 7.20403 5.63931 7.20403 4.4244C7.20403 3.20949 6.22174 2.22461 5.01003 2.22461C3.79832 2.22461 2.81604 3.20949 2.81604 4.4244C2.81604 5.63931 3.79832 6.6242 5.01003 6.6242Z" fill="#EF5D0B"/>
</g>
<path d="M112.255 7.35806C112.621 6.99175 113.065 6.80859 113.584 6.80859C114.103 6.80859 114.547 6.99175 114.913 7.35806C115.279 7.72438 115.463 8.1684 115.463 8.68734C115.463 9.20628 115.279 9.6503 114.913 10.0166C114.547 10.3829 114.103 10.5661 113.584 10.5661C113.065 10.5661 112.621 10.3829 112.255 10.0166C111.888 9.6503 111.705 9.20628 111.705 8.68734C111.705 8.1684 111.888 7.72438 112.255 7.35806ZM113.584 10.4107C114.053 10.4107 114.458 10.2442 114.791 9.90839C115.124 9.5726 115.291 9.16466 115.291 8.68734C115.291 8.21002 115.124 7.80208 114.791 7.46629C114.458 7.13051 114.053 6.964 113.584 6.964C113.115 6.964 112.704 7.13051 112.371 7.46629C112.038 7.80208 111.869 8.21002 111.869 8.68734C111.869 9.16466 112.035 9.5726 112.371 9.90839C112.704 10.2442 113.109 10.4107 113.584 10.4107ZM114.347 8.34878C114.347 8.61796 114.239 8.80667 114.02 8.9149L114.419 9.64753H113.983L113.645 8.99815H113.365V9.64753H112.965V7.72715H113.614C113.839 7.72715 114.017 7.78821 114.15 7.90754C114.283 8.02686 114.347 8.17395 114.347 8.35155V8.34878ZM113.365 8.09902V8.63461H113.614C113.717 8.63461 113.8 8.60964 113.859 8.56246C113.917 8.51251 113.947 8.44868 113.947 8.37098C113.947 8.1906 113.836 8.10179 113.614 8.10179H113.365V8.09902Z" fill="#6D28D9"/>
<path d="M54.1305 20.3664C53.0133 21.4331 51.6466 21.9676 50.0353 21.9676C48.424 21.9676 47.0623 21.4331 45.953 20.3664C44.8436 19.2998 44.2876 17.9906 44.2876 16.4413C44.2876 14.8921 44.8436 13.5829 45.953 12.5163C47.0649 11.4496 48.424 10.915 50.0353 10.915C51.6466 10.915 53.0108 11.4496 54.1305 12.5163C55.2476 13.5829 55.8061 14.8921 55.8061 16.4413C55.8061 17.9906 55.2476 19.2998 54.1305 20.3664ZM47.9349 18.5128C48.4935 19.0572 49.1936 19.3295 50.0353 19.3295C50.877 19.3295 51.5822 19.0572 52.1485 18.5128C52.7148 17.9683 52.9979 17.2778 52.9979 16.4389C52.9979 15.5999 52.7148 14.9094 52.1485 14.365C51.5822 13.8205 50.877 13.5483 50.0353 13.5483C49.1936 13.5483 48.4935 13.8205 47.9349 14.365C47.3764 14.9094 47.0958 15.5999 47.0958 16.4389C47.0958 17.2778 47.3738 17.9683 47.9349 18.5128Z" fill="#6D28D9"/>
<path d="M66.0604 20.3664C64.9433 21.4331 63.5791 21.9676 61.9652 21.9676C60.3513 21.9676 58.9923 21.4331 57.8829 20.3664C56.7735 19.2998 56.2175 17.9906 56.2175 16.4413C56.2175 14.8921 56.7735 13.5829 57.8829 12.5163C58.9923 11.4496 60.3539 10.915 61.9652 10.915C63.5765 10.915 64.9407 11.4496 66.0604 12.5163C67.1775 13.5829 67.736 14.8921 67.736 16.4413C67.736 17.9906 67.1775 19.2998 66.0604 20.3664ZM59.8648 18.5128C60.4234 19.0572 61.1235 19.3295 61.9652 19.3295C62.8069 19.3295 63.5122 19.0572 64.0784 18.5128C64.6447 17.9683 64.9278 17.2778 64.9278 16.4389C64.9278 15.5999 64.6447 14.9094 64.0784 14.365C63.5122 13.8205 62.8069 13.5483 61.9652 13.5483C61.1235 13.5483 60.4234 13.8205 59.8648 14.365C59.3063 14.9094 59.0257 15.5999 59.0257 16.4389C59.0257 17.2778 59.3063 17.9683 59.8648 18.5128Z" fill="#6D28D9"/>
<path d="M80.6079 22.1833V6.89795H83.5808V22.1833H80.6079Z" fill="#6D28D9"/>
<path d="M77.0215 11.2071V11.6723C76.1489 11.1699 75.1631 10.915 74.0588 10.915C72.4475 10.915 71.0859 11.4496 69.9765 12.5163C68.8671 13.5829 68.3112 14.8921 68.3112 16.4413C68.3112 17.9906 68.8671 19.2998 69.9765 20.3664C71.0859 21.4331 72.4475 21.9676 74.0588 21.9676C75.1631 21.9676 76.1489 21.7102 77.0215 21.2103V26.9912H79.8297V11.2071H77.0215ZM76.1721 18.5152C75.6058 19.0597 74.9005 19.3319 74.0588 19.3319C73.2171 19.3319 72.517 19.0597 71.9585 18.5152C71.3999 17.9708 71.1194 17.2803 71.1194 16.4413C71.1194 15.6024 71.3999 14.9119 71.9585 14.3674C72.517 13.823 73.2171 13.5507 74.0588 13.5507C74.9005 13.5507 75.6058 13.823 76.1721 14.3674C76.7383 14.9119 77.0215 15.6024 77.0215 16.4413C77.0215 17.2803 76.7383 17.9708 76.1721 18.5152Z" fill="#6D28D9"/>
<path d="M92.8521 11.1476V11.6748C91.9796 11.1724 90.9937 10.9175 89.8895 10.9175C88.2782 10.9175 86.9166 11.452 85.8072 12.5187C84.6978 13.5853 84.1418 14.8945 84.1418 16.4438C84.1418 17.993 84.6978 19.3022 85.8072 20.3689C86.9166 21.4355 88.2782 21.9701 89.8895 21.9701C90.9937 21.9701 91.9796 21.7127 92.8521 21.2128V21.7399H95.7118V11.1476H92.8521ZM92.0027 18.5177C91.4365 19.0621 90.7312 19.3344 89.8895 19.3344C89.0478 19.3344 88.3477 19.0621 87.7892 18.5177C87.2306 17.9732 86.95 17.2827 86.95 16.4438C86.95 15.6048 87.2306 14.9143 87.7892 14.3699C88.3477 13.8254 89.0478 13.5532 89.8895 13.5532C90.7312 13.5532 91.4365 13.8254 92.0027 14.3699C92.569 14.9143 92.8521 15.6048 92.8521 16.4438C92.8521 17.2827 92.569 17.9732 92.0027 18.5177Z" fill="#6D28D9"/>
<path d="M40.436 17.6094C40.436 18.4855 39.6947 19.2007 38.7835 19.2007C37.8723 19.2007 37.131 18.488 37.131 17.6094V11.207H34.1066V17.6119C34.1066 18.488 33.3653 19.2032 32.4516 19.2032C31.5378 19.2032 30.7991 18.4905 30.7991 17.6119V11.207H27.7721V17.6119C27.7721 20.0917 29.8699 22.1111 32.4516 22.1111C33.6742 22.1111 34.7836 21.6558 35.6175 20.9158C36.4515 21.6558 37.5609 22.1111 38.7835 22.1111C41.3626 22.1111 43.463 20.0941 43.463 17.6119V11.207H40.4386V17.6119L40.436 17.6094Z" fill="#6D28D9"/>
<path d="M109.317 11.207V17.6119C109.317 18.488 108.576 19.2032 107.665 19.2032C106.754 19.2032 106.012 18.4905 106.012 17.6119V11.207H102.988V17.6119C102.988 18.488 102.247 19.2032 101.333 19.2032C100.419 19.2032 99.6803 18.4905 99.6803 17.6119V11.207H96.6559V17.6119C96.6559 20.0917 98.7537 22.1111 101.335 22.1111C102.558 22.1111 103.667 21.6558 104.501 20.9158C105.335 21.6558 106.445 22.1111 107.667 22.1111C110.246 22.1111 112.347 20.0941 112.347 17.6119V11.207H109.322H109.317Z" fill="#6D28D9"/>
<defs>
<linearGradient id="paint0_linear_179491_138629" x1="-0.0494042" y1="19.7529" x2="23.4387" y2="17.7035" gradientUnits="userSpaceOnUse">
<stop stop-color="#9549F4"/>
<stop offset="0.510417" stop-color="#FF385C"/>
<stop offset="1" stop-color="#FFB23E"/>
</linearGradient>
<clipPath id="clip0_179491_138629">
<rect width="23.047" height="29.7051" fill="white"/>
</clipPath>
</defs>
</svg>
